# xmcd
#
# Track frame offsets:
#	150
#	15632
#	30622
#	45830
#	62984
#	82748
#	97838
#	109468
#	124917
#	141200
#	155644
#	168327
#	183783
#	200077
#	211650
#	223714
#	237442
#	251181
#	266070
#	278859
#
# Disc length: 3957 seconds
#
# Revision: 1
# Processed by: cddbd v1.5.2PL0 Copyright (c) Steve Scherf et al.
# Submitted via: EasyCDDAExtractor 2010.6.0.0
#
DISCID=1f0f7314
DTITLE=Various Artist - Hit Country - Summer Party 2 Disc 2
DYEAR=2010
DGENRE=Country
TTITLE0=Sugarland - Settlin'
TTITLE1=Hot Apple Pie - Hillbillies
TTITLE2=Jayne Denham - Shake This Town
TTITLE3=Matt Scullion - Giddy Up
TTITLE4=The Mavericks - Dance The Night Away
TTITLE5=The McClymonts - My Life Again
TTITLE6=Lianna Rose - Jack
TTITLE7=Beccy Cole - So Good For So Long
TTITLE8=Joe Nichols - Ain't No Crime
TTITLE9=Gina Jeffreys - Girls Night Out
TTITLE10=Lee Kernaghan - On The Beach
TTITLE11=Harley Smith - Yeah Right
TTITLE12=Jetty Road - Good Times
TTITLE13=Shea Fisher - Freedom
TTITLE14=Talia Whittmann - Girls Get Loud
TTITLE15=James Blundell - 24 Hour Love Affair
TTITLE16=Victoria Baillie - I'm Over It
TTITLE17=Gemma Luxton - Party
TTITLE18=Yee Ha Boys - Knocking Boots
TTITLE19=Chely Wright - Some Kind Of Somethin'
EXTD=
EXTT0=
EXTT1=
EXTT2=
EXTT3=
EXTT4=
EXTT5=
EXTT6=
EXTT7=
EXTT8=
EXTT9=
EXTT10=
EXTT11=
EXTT12=
EXTT13=
EXTT14=
EXTT15=
EXTT16=
EXTT17=
EXTT18=
EXTT19=
PLAYORDER=
